P3
16 9
255
163 200 255 161 199 255 158 197 255 155 195 255 152 194 255 150 192 255 148 191 255 146 190 255 146 190 255 148 191 255 150 192 255 152 194 255 155 195 255 158 197 255 161 199 255 163 200 255
169 204 255 167 203 255 165 201 255 162 200 255 160 198 255 157 196 255 155 195 255 153 194 255 153 194 255 155 195 255 157 196 255 160 198 255 162 200 255 165 201 255 167 203 255 169 204 255
176 208 255 175 207 255 173 206 255 171 205 255 169 203 255 166 202 255 164 201 255 109 206 227 146 206 227 164 201 255 166 202 255 169 203 255 171 205 255 173 206 255 175 207 255 176 208 255
184 212 255 183 212 255 182 211 255 181 211 255 179 210 255 178 209 255 76 164 239 112 161 250 143 161 250 179 164 239 178 209 255 179 210 255 181 211 255 182 211 255 183 212 255 184 212 255
191 217 255 191 217 255 191 217 255 191 217 255 191 217 255 191 217 255 79 127 246 112 127 255 143 127 255 176 127 246 191 217 255 191 217 255 191 217 255 191 217 255 191 217 255 191 217 255
199 222 255 200 222 255 201 223 255 202 224 255 204 224 255 205 225 255 76 91 239 112 94 250 143 94 250 179 91 239 205 225 255 204 224 255 202 224 255 201 223 255 200 222 255 199 222 255
207 226 255 208 227 255 210 228 255 212 230 255 214 231 255 217 232 255 219 233 255 109 49 227 146 49 227 219 233 255 217 232 255 214 231 255 212 230 255 210 228 255 208 227 255 207 226 255
214 230 255 216 232 255 218 233 255 221 235 255 223 236 255 226 238 255 228 239 255 230 240 255 230 240 255 228 239 255 226 238 255 223 236 255 221 235 255 218 233 255 216 232 255 214 230 255
220 234 255 222 235 255 225 237 255 228 239 255 231 241 255 233 242 255 235 243 255 237 244 255 237 244 255 235 243 255 233 242 255 231 241 255 228 239 255 225 237 255 222 235 255 220 234 255
